<svg display="none" xmlns="http://www.w3.org/2000/svg">
    <!-- camera -->
    <symbol viewBox="0 0 50 50" id="camera">
        <g>
            <circle cx="25" cy="25" r="25" fill="#9BD9F9" style="mix-blend-mode:multiply"/>
            <path d="M30 23.5V20C30 19.45 29.55 19 29 19H17C16.45 19 16 19.45 16 20V30C16 30.55 16.45 31 17 31H29C29.55 31 30 30.55 30 30V26.5L34 30.5V19.5L30 23.5Z" fill="#9BD9F9"/>
        </g>
    </symbol>

    <!-- camera crossed -->
    <symbol viewBox="0 0 30 30" id="cameraCrossed">
        <g opacity="0.5">
        <circle cx="15" cy="15" r="15" fill="white"/>
        <path d="M22 11.3158L19.0526 14.2632V11.6842C19.0526 11.2789 18.7211 10.9474 18.3158 10.9474H13.7621L22 19.1853V11.3158ZM8.93579 8L8 8.93579L10.0116 10.9474H9.47368C9.06842 10.9474 8.73684 11.2789 8.73684 11.6842V19.0526C8.73684 19.4579 9.06842 19.7895 9.47368 19.7895H18.3158C18.4705 19.7895 18.6032 19.7305 18.7137 19.6568L21.0642 22L22 21.0642L8.93579 8Z" fill="#333333"/>
        </g>
    </symbol>

    <!-- mic crossed -->
    <symbol viewBox="0 0 30 30" id="micCrossed">
        <g opacity="0.5">
            <circle cx="15" cy="15" r="15" fill="white"/>
            <path d="M20.4444 15H19.1222C19.1222 15.5756 18.9978 16.1122 18.7878 16.5944L19.7444 17.5511C20.18 16.7889 20.4444 15.9256 20.4444 15ZM17.3178 15.1322C17.3178 15.0856 17.3333 15.0467 17.3333 15V10.3333C17.3333 9.04222 16.2911 8 15 8C13.7089 8 12.6667 9.04222 12.6667 10.3333V10.4733L17.3178 15.1322ZM8.98778 8.77778L8 9.76556L12.6744 14.44V15C12.6744 16.2911 13.7089 17.3333 15 17.3333C15.1711 17.3333 15.3422 17.31 15.5056 17.2711L16.7967 18.5622C16.2444 18.8189 15.63 18.9667 15 18.9667C12.8533 18.9667 10.8778 17.3333 10.8778 15H9.55556C9.55556 17.6522 11.6711 19.8456 14.2222 20.2267V22.7778H15.7778V20.2267C16.4856 20.1256 17.1544 19.8767 17.7533 19.5267L21.0122 22.7778L22 21.79L8.98778 8.77778Z" fill="black"/>
        </g>
    </symbol>

    <!-- call end -->
    <symbol viewBox="0 0 30 30" id="callEnd">
        <g>
            <circle cx="15" cy="15" r="15" fill="#FF4550"/>
            <path d="M15 13.3333C13.9333 13.3333 12.9 13.5 11.9333 13.8133V15.88C11.9333 16.14 11.78 16.3733 11.56 16.48C10.9067 16.8067 10.3133 17.2267 9.78667 17.7133C9.66667 17.8333 9.5 17.9 9.32 17.9C9.13333 17.9 8.96667 17.8267 8.84667 17.7067L7.19333 16.0533C7.07333 15.94 7 15.7733 7 15.5867C7 15.4 7.07333 15.2333 7.19333 15.1133C9.22667 13.1867 11.9733 12 15 12C18.0267 12 20.7733 13.1867 22.8067 15.1133C22.9267 15.2333 23 15.4 23 15.5867C23 15.7733 22.9267 15.94 22.8067 16.06L21.1533 17.7133C21.0333 17.8333 20.8667 17.9067 20.68 17.9067C20.5 17.9067 20.3333 17.8333 20.2133 17.72C19.6867 17.2267 19.0867 16.8133 18.4333 16.4867C18.2133 16.38 18.06 16.1533 18.06 15.8867V13.82C17.1 13.5 16.0667 13.3333 15 13.3333Z" fill="white"/>
        </g>
    </symbol>
</svg>