<svg display="none" xmlns="http://www.w3.org/2000/svg">

    <!-- ellipse -->
    <symbol  viewBox="0 0 121 121" id="ellipse">
        <g>
            <circle cx="60.5" cy="60.5" r="60.5"/>
        </g>
    </symbol>

    <!-- dots -->
    <symbol viewBox="0 0 86 70" id="dots">
        <g>
            <circle cx="3" cy="3" r="3"/>
            <circle cx="3" cy="19" r="3"/>
            <circle cx="3" cy="35" r="3"/>
            <circle cx="3" cy="51" r="3"/>
            <circle cx="3" cy="67" r="3"/>
            <circle cx="19" cy="3" r="3"/>
            <circle cx="19" cy="19" r="3"/>
            <circle cx="19" cy="35" r="3"/>
            <circle cx="19" cy="51" r="3"/>
            <circle cx="19" cy="67" r="3"/>
            <circle cx="35" cy="3" r="3"/>
            <circle cx="35" cy="19" r="3"/>
            <circle cx="35" cy="35" r="3"/>
            <circle cx="35" cy="51" r="3"/>
            <circle cx="35" cy="67" r="3"/>
            <circle cx="51" cy="3" r="3"/>
            <circle cx="51" cy="19" r="3"/>
            <circle cx="51" cy="35" r="3"/>
            <circle cx="51" cy="51" r="3"/>
            <circle cx="51" cy="67" r="3"/>
            <circle cx="67" cy="3" r="3"/>
            <circle cx="67" cy="19" r="3"/>
            <circle cx="67" cy="35" r="3"/>
            <circle cx="67" cy="51" r="3"/>
            <circle cx="67" cy="67" r="3"/>
            <circle cx="83" cy="3" r="3"/>
            <circle cx="83" cy="19" r="3"/>
            <circle cx="83" cy="35" r="3"/>
            <circle cx="83" cy="51" r="3"/>
            <circle cx="83" cy="67" r="3"/>
        </g>
    </symbol>

    <!-- rectangle -->
    <symbol viewBox="0 0 684 903" id="rectangle">
        <g>
            <rect x="-22.9033" y="-17.301" width="836.602" height="600" rx="50" transform="rotate(30 -22.9033 -17.301)"/>
        </g>
    </symbol>

    <!-- triangle -->
    <symbol viewBox="0 0 644 720" id="triangle">
        <g>
            <path d="M603.75 291.075C657.083 321.867 657.083 398.847 603.75 429.639L120 708.932C66.6667 739.725 2.78698e-05 701.234 3.05617e-05 639.65L5.49783e-05 81.064C5.76703e-05 19.48 66.6667 -19.01 120 11.782L603.75 291.075Z"/>
        </g>
    </symbol>

    <!-- angle -->
    <symbol viewBox="0 0 86 70" id="angle">
        <g>
            <circle cx="83" cy="67" r="3" transform="rotate(180 83 67)" fill="#FFD100"/>
            <circle cx="83" cy="51" r="3" transform="rotate(180 83 51)" fill="#FFD100"/>
            <circle cx="67" cy="67" r="3" transform="rotate(180 67 67)" fill="#FFD100"/>
            <circle cx="67" cy="51" r="3" transform="rotate(180 67 51)" fill="#FFD100"/>
            <circle cx="51" cy="67" r="3" transform="rotate(180 51 67)" fill="#FFD100"/>
            <circle cx="51" cy="51" r="3" transform="rotate(180 51 51)" fill="#FFD100"/>
            <circle cx="35" cy="67" r="3" transform="rotate(180 35 67)" fill="#FFD100"/>
            <circle cx="35" cy="51" r="3" transform="rotate(180 35 51)" fill="#FFD100"/>
            <circle cx="35" cy="35" r="3" transform="rotate(180 35 35)" fill="#FFD100"/>
            <circle cx="51" cy="35" r="3" transform="rotate(180 51 35)" fill="#FFD100"/>
            <circle cx="35" cy="19" r="3" transform="rotate(180 35 19)" fill="#FFD100"/>
            <circle cx="35" cy="3" r="3" transform="rotate(180 35 3)" fill="#FFD100"/>
            <circle cx="19" cy="67" r="3" transform="rotate(180 19 67)" fill="#FFD100"/>
            <circle cx="19" cy="51" r="3" transform="rotate(180 19 51)" fill="#FFD100"/>
            <circle cx="19" cy="35" r="3" transform="rotate(180 19 35)" fill="#FFD100"/>
            <circle cx="19" cy="19" r="3" transform="rotate(180 19 19)" fill="#FFD100"/>
            <circle cx="19" cy="3" r="3" transform="rotate(180 19 3)" fill="#FFD100"/>
            <circle cx="3" cy="67" r="3" transform="rotate(180 3 67)" fill="#FFD100"/>
            <circle cx="3" cy="51" r="3" transform="rotate(180 3 51)" fill="#FFD100"/>
            <circle cx="3" cy="35" r="3" transform="rotate(180 3 35)" fill="#FFD100"/>
            <circle cx="3" cy="19" r="3" transform="rotate(180 3 19)" fill="#FFD100"/>
            <circle cx="3" cy="3" r="3" transform="rotate(180 3 3)" fill="#FFD100"/>
        </g>
    </symbol>
</svg>